<svg width="73" height="67" viewBox="0 0 73 67" fill="none" xmlns="http://www.w3.org/2000/svg">
<path d="M66.4629 0.953185C65.4877 0.996208 64.5792 1.28025 63.7793 1.60358C63.03 1.90497 60.1673 3.13279 55.6582 5.06647C51.1452 7.00182 45.1694 9.5674 38.7949 12.3087C26.0459 17.7912 11.7126 23.9626 4.37109 27.1212C4.09503 27.2399 3.13176 27.5476 2.10938 28.3458C1.08699 29.1439 0 30.7978 0 32.6407C0 34.1267 0.708203 35.603 1.59961 36.4844C2.49102 37.3659 3.43424 37.8013 4.24219 38.1309C7.17369 39.3271 16.2655 43.0476 17.9824 43.7501C18.5866 45.601 21.8775 55.6676 22.6406 58.1348C23.1437 59.7629 23.6226 60.7826 24.2461 61.5919C24.5578 61.9965 24.9202 62.3511 25.3594 62.629C25.5349 62.74 25.7274 62.8256 25.9219 62.9044L25.9336 62.9102C25.9784 62.9282 26.017 62.9588 26.0625 62.9747C26.1482 63.0047 26.2056 63.0083 26.3203 63.0333C26.7773 63.1808 27.2386 63.2735 27.6504 63.2735C29.4059 63.2735 30.4805 62.3067 30.4805 62.3067L30.5449 62.2598L39.5742 54.4493L50.5254 64.8087C50.6796 65.0267 52.1176 67.0001 55.2891 67.0001C57.1722 67.0001 58.666 66.0551 59.625 65.0489C60.584 64.0426 61.1815 62.9855 61.4355 61.6563V61.6505C61.6731 60.3944 71.7656 8.58209 71.7656 8.58209L71.748 8.6524C72.0435 7.30386 72.1209 6.04798 71.7949 4.80865C71.4689 3.56933 70.6099 2.38273 69.5449 1.7442C68.48 1.10581 67.4381 0.910162 66.4629 0.953185ZM65.9004 7.22272C65.886 7.31027 65.9112 7.26624 65.8887 7.3692L65.8828 7.40436L65.877 7.43951C65.877 7.43951 55.9095 58.5892 55.541 60.5372C55.568 60.3901 55.4447 60.6826 55.3184 60.8594C55.1397 60.7363 54.7734 60.5782 54.7734 60.5782L54.7148 60.5137L39.7559 46.3633L29.1797 55.504L32.3262 42.9063C32.3262 42.9063 51.9947 22.5464 53.1797 21.3614C54.1337 20.4134 54.334 20.0829 54.334 19.7559C54.334 19.3179 54.1057 19.0001 53.5957 19.0001C53.1367 19.0001 52.5195 19.4463 52.1895 19.6563C47.8901 22.3969 29.0155 33.3975 20.5547 38.3184C19.2101 37.7682 9.86899 33.9445 6.70312 32.6524C6.72709 32.6419 6.7192 32.6456 6.74414 32.6348C14.0876 29.4754 28.4149 23.3041 41.1621 17.8223C47.5357 15.0815 53.516 12.5139 58.0254 10.5801C62.4653 8.67611 65.5504 7.36573 65.9004 7.22272Z" fill="black"/>
</svg>
